<svg width="668" height="668" viewBox="0 0 668 668" fill="none" xmlns="http://www.w3.org/2000/svg">
<circle cx="333.717" cy="333.717" r="155.027" fill="#0B0B0F" fill-opacity="0.56"/>
<circle cx="333.717" cy="333.717" r="154.098" stroke="url(#paint0_linear_336_4133)" stroke-opacity="0.45" stroke-width="1.8572"/>
<g filter="url(#filter0_f_336_4133)">
<path d="M333.717 488.744C359.075 488.744 383.011 482.656 404.143 471.861M255.134 200.055C239.098 209.503 224.912 221.754 213.249 236.135M435.302 216.608C452.087 231.18 465.709 249.302 474.999 269.806" stroke="#ED5C15" stroke-width="12"/>
</g>
<g filter="url(#filter1_bdf_336_4133)">
<path d="M333.717 488.744C359.075 488.744 383.011 482.656 404.143 471.861M255.134 200.055C239.098 209.503 224.912 221.754 213.249 236.135M435.302 216.608C452.087 231.18 465.709 249.302 474.999 269.806" stroke="#ED5C15" stroke-width="4"/>
</g>
<circle cx="333.606" cy="333.56" r="180.754" stroke="#7E7F8C" stroke-opacity="0.45" stroke-width="1.8572"/>
<circle cx="333.717" cy="333.717" r="269.261" stroke="#7E7F8C" stroke-opacity="0.45" stroke-width="1.8572"/>
<g filter="url(#filter2_bdf_336_4133)">
<path d="M333.717 603.907C357.1 603.907 379.789 600.936 401.428 595.352M401.428 72.0815C423.655 77.8173 444.774 86.3108 464.397 97.1752" stroke="#ED5C15" stroke-width="4"/>
</g>
<g filter="url(#filter3_f_336_4133)">
<path d="M515.289 333.473C515.289 303.741 508.158 275.676 495.515 250.899M177.166 425.611C188.232 444.413 202.581 461.046 219.424 474.721M196.553 214.365C213.622 194.684 234.847 178.713 258.861 167.82" stroke="#ED5C15" stroke-width="4"/>
</g>
<g filter="url(#filter4_f_336_4133)">
<circle cx="334" cy="334" r="298.5" stroke="url(#paint1_linear_336_4133)" stroke-width="29"/>
</g>
<g filter="url(#filter5_f_336_4133)">
<circle cx="334" cy="334" r="298.5" stroke="url(#paint2_linear_336_4133)" stroke-width="29"/>
</g>
<g filter="url(#filter6_f_336_4133)">
<circle cx="334" cy="334" r="313" stroke="url(#paint3_linear_336_4133)" stroke-width="10" stroke-linecap="round"/>
</g>
<path d="M200 106H142V155.455M200 582H142V532.545" stroke="#E0E7EC"/>
<path d="M472 106H526V155.455M472 582H526V532.545" stroke="#E0E7EC"/>
<path d="M256.023 343.112V341.048H261.927V343.112C261.927 344.456 262.327 345.592 263.127 346.52C263.927 347.448 265.175 347.912 266.871 347.912C268.599 347.912 269.847 347.464 270.615 346.568C271.383 345.64 271.767 344.424 271.767 342.92V317.912H277.911V343.256C277.911 345.272 277.447 347.064 276.519 348.632C275.623 350.2 274.359 351.432 272.727 352.328C271.095 353.192 269.159 353.624 266.919 353.624C264.551 353.624 262.551 353.176 260.919 352.28C259.287 351.352 258.055 350.104 257.223 348.536C256.423 346.936 256.023 345.128 256.023 343.112ZM283.132 341.096C283.132 338.632 283.676 336.472 284.764 334.616C285.852 332.728 287.356 331.256 289.276 330.2C291.196 329.144 293.372 328.616 295.804 328.616C298.268 328.616 300.444 329.144 302.332 330.2C304.252 331.256 305.756 332.728 306.844 334.616C307.932 336.472 308.476 338.632 308.476 341.096C308.476 343.56 307.932 345.736 306.844 347.624C305.756 349.48 304.252 350.936 302.332 351.992C300.444 353.048 298.268 353.576 295.804 353.576C293.372 353.576 291.196 353.048 289.276 351.992C287.356 350.936 285.852 349.48 284.764 347.624C283.676 345.736 283.132 343.56 283.132 341.096ZM288.988 341.096C288.988 342.536 289.276 343.8 289.852 344.888C290.46 345.976 291.26 346.824 292.252 347.432C293.276 348.04 294.46 348.344 295.804 348.344C297.148 348.344 298.332 348.04 299.356 347.432C300.38 346.824 301.18 345.976 301.756 344.888C302.332 343.8 302.62 342.536 302.62 341.096C302.62 339.624 302.332 338.36 301.756 337.304C301.18 336.216 300.38 335.368 299.356 334.76C298.332 334.152 297.148 333.848 295.804 333.848C294.46 333.848 293.276 334.152 292.252 334.76C291.26 335.368 290.46 336.216 289.852 337.304C289.276 338.36 288.988 339.624 288.988 341.096ZM313.118 353V329.288H318.974V353H313.118ZM315.998 324.536C315.006 324.536 314.158 324.2 313.454 323.528C312.782 322.824 312.446 321.976 312.446 320.984C312.446 319.992 312.782 319.16 313.454 318.488C314.158 317.816 315.006 317.48 315.998 317.48C316.99 317.48 317.822 317.816 318.494 318.488C319.198 319.16 319.55 319.992 319.55 320.984C319.55 321.976 319.198 322.824 318.494 323.528C317.822 324.2 316.99 324.536 315.998 324.536ZM330.88 353H325.024V329.288H330.448L330.928 332.36C331.664 331.176 332.704 330.248 334.048 329.576C335.424 328.904 336.912 328.568 338.512 328.568C341.488 328.568 343.728 329.448 345.232 331.208C346.768 332.968 347.536 335.368 347.536 338.408V353H341.68V339.8C341.68 337.816 341.232 336.344 340.336 335.384C339.44 334.392 338.224 333.896 336.688 333.896C334.864 333.896 333.44 334.472 332.416 335.624C331.392 336.776 330.88 338.312 330.88 340.232V353ZM382.307 329.288H388.163V353H382.739L382.307 349.832C381.603 350.952 380.547 351.864 379.139 352.568C377.731 353.272 376.227 353.624 374.627 353.624C371.907 353.624 369.779 352.76 368.243 351.032C366.707 349.304 365.939 347 365.939 344.12V329.288H371.795V342.056C371.795 344.296 372.227 345.912 373.091 346.904C373.955 347.896 375.203 348.392 376.835 348.392C378.691 348.392 380.067 347.848 380.963 346.76C381.859 345.64 382.307 343.96 382.307 341.72V329.288ZM391.919 345.8H397.487C397.519 346.824 397.903 347.64 398.639 348.248C399.375 348.856 400.399 349.16 401.711 349.16C403.119 349.16 404.175 348.904 404.879 348.392C405.615 347.88 405.983 347.192 405.983 346.328C405.983 345.752 405.791 345.24 405.407 344.792C405.023 344.344 404.303 344.008 403.247 343.784L398.975 342.776C396.831 342.296 395.231 341.528 394.175 340.472C393.151 339.384 392.639 337.896 392.639 336.008C392.639 334.472 393.039 333.144 393.839 332.024C394.671 330.904 395.791 330.056 397.199 329.48C398.607 328.872 400.223 328.568 402.047 328.568C403.807 328.568 405.359 328.888 406.703 329.528C408.047 330.168 409.087 331.064 409.823 332.216C410.591 333.368 410.991 334.712 411.023 336.248H405.455C405.455 335.224 405.135 334.424 404.495 333.848C403.855 333.24 402.959 332.936 401.807 332.936C400.655 332.936 399.759 333.192 399.119 333.704C398.479 334.216 398.159 334.904 398.159 335.768C398.159 337.08 399.183 337.976 401.231 338.456L405.503 339.464C407.487 339.912 408.975 340.632 409.967 341.624C410.991 342.616 411.503 344.024 411.503 345.848C411.503 347.448 411.087 348.84 410.255 350.024C409.423 351.176 408.255 352.072 406.751 352.712C405.247 353.32 403.519 353.624 401.567 353.624C398.623 353.624 396.271 352.904 394.511 351.464C392.783 350.024 391.919 348.136 391.919 345.8Z" fill="white"/>
<defs>
<filter id="filter0_f_336_4133" x="198.589" y="184.885" width="291.875" height="319.859" filterUnits="userSpaceOnUse" color-interpolation-filters="sRGB">
<feFlood flood-opacity="0" result="BackgroundImageFix"/>
<feBlend mode="normal" in="SourceGraphic" in2="BackgroundImageFix" result="shape"/>
<feGaussianBlur stdDeviation="5" result="effect1_foregroundBlur_336_4133"/>
</filter>
<filter id="filter1_bdf_336_4133" x="135.696" y="122.332" width="417.125" height="444.413" filterUnits="userSpaceOnUse" color-interpolation-filters="sRGB">
<feFlood flood-opacity="0" result="BackgroundImageFix"/>
<feGaussianBlur in="BackgroundImageFix" stdDeviation="38"/>
<feComposite in2="SourceAlpha" operator="in" result="effect1_backgroundBlur_336_4133"/>
<feColorMatrix in="SourceAlpha" type="matrix" values="0 0 0 0 0 0 0 0 0 0 0 0 0 0 0 0 0 0 127 0" result="hardAlpha"/>
<feOffset dy="8"/>
<feGaussianBlur stdDeviation="2"/>
<feComposite in2="hardAlpha" operator="out"/>
<feColorMatrix type="matrix" values="0 0 0 0 0.791667 0 0 0 0 0.625356 0 0 0 0 0.122049 0 0 0 1 0"/>
<feBlend mode="normal" in2="effect1_backgroundBlur_336_4133" result="effect2_dropShadow_336_4133"/>
<feBlend mode="normal" in="SourceGraphic" in2="effect2_dropShadow_336_4133" result="shape"/>
<feGaussianBlur stdDeviation="10.5" result="effect3_foregroundBlur_336_4133"/>
</filter>
<filter id="filter2_bdf_336_4133" x="273.717" y="10.145" width="251.649" height="655.761" filterUnits="userSpaceOnUse" color-interpolation-filters="sRGB">
<feFlood flood-opacity="0" result="BackgroundImageFix"/>
<feGaussianBlur in="BackgroundImageFix" stdDeviation="30"/>
<feComposite in2="SourceAlpha" operator="in" result="effect1_backgroundBlur_336_4133"/>
<feColorMatrix in="SourceAlpha" type="matrix" values="0 0 0 0 0 0 0 0 0 0 0 0 0 0 0 0 0 0 127 0" result="hardAlpha"/>
<feOffset dy="8"/>
<feGaussianBlur stdDeviation="2"/>
<feComposite in2="hardAlpha" operator="out"/>
<feColorMatrix type="matrix" values="0 0 0 0 0.791667 0 0 0 0 0.625356 0 0 0 0 0.122049 0 0 0 1 0"/>
<feBlend mode="normal" in2="effect1_backgroundBlur_336_4133" result="effect2_dropShadow_336_4133"/>
<feBlend mode="normal" in="SourceGraphic" in2="effect2_dropShadow_336_4133" result="shape"/>
<feGaussianBlur stdDeviation="5.5" result="effect3_foregroundBlur_336_4133"/>
</filter>
<filter id="filter3_f_336_4133" x="165.443" y="155.999" width="361.846" height="330.275" filterUnits="userSpaceOnUse" color-interpolation-filters="sRGB">
<feFlood flood-opacity="0" result="BackgroundImageFix"/>
<feBlend mode="normal" in="SourceGraphic" in2="BackgroundImageFix" result="shape"/>
<feGaussianBlur stdDeviation="5" result="effect1_foregroundBlur_336_4133"/>
</filter>
<filter id="filter4_f_336_4133" x="0" y="0" width="668" height="668" filterUnits="userSpaceOnUse" color-interpolation-filters="sRGB">
<feFlood flood-opacity="0" result="BackgroundImageFix"/>
<feBlend mode="normal" in="SourceGraphic" in2="BackgroundImageFix" result="shape"/>
<feGaussianBlur stdDeviation="10.5" result="effect1_foregroundBlur_336_4133"/>
</filter>
<filter id="filter5_f_336_4133" x="0" y="0" width="668" height="668" filterUnits="userSpaceOnUse" color-interpolation-filters="sRGB">
<feFlood flood-opacity="0" result="BackgroundImageFix"/>
<feBlend mode="normal" in="SourceGraphic" in2="BackgroundImageFix" result="shape"/>
<feGaussianBlur stdDeviation="10.5" result="effect1_foregroundBlur_336_4133"/>
</filter>
<filter id="filter6_f_336_4133" x="12" y="12" width="644" height="644" filterUnits="userSpaceOnUse" color-interpolation-filters="sRGB">
<feFlood flood-opacity="0" result="BackgroundImageFix"/>
<feBlend mode="normal" in="SourceGraphic" in2="BackgroundImageFix" result="shape"/>
<feGaussianBlur stdDeviation="2" result="effect1_foregroundBlur_336_4133"/>
</filter>
<linearGradient id="paint0_linear_336_4133" x1="333.717" y1="178.69" x2="333.717" y2="488.744" gradientUnits="userSpaceOnUse">
<stop stop-color="#ED5C15"/>
<stop offset="1" stop-color="#FFD966"/>
</linearGradient>
<linearGradient id="paint1_linear_336_4133" x1="46.9723" y1="212.13" x2="409.919" y2="472.519" gradientUnits="userSpaceOnUse">
<stop stop-color="#421F00" stop-opacity="0.4"/>
<stop offset="0.335214" stop-color="#C78144" stop-opacity="0.487762"/>
<stop offset="0.748564" stop-color="#FFDEC1" stop-opacity="0"/>
</linearGradient>
<linearGradient id="paint2_linear_336_4133" x1="46.9723" y1="212.13" x2="595.721" y2="600.383" gradientUnits="userSpaceOnUse">
<stop stop-color="#672505" stop-opacity="0.78"/>
<stop offset="0.524887" stop-color="#C78144" stop-opacity="0.487762"/>
<stop offset="0.890821" stop-color="#FFDEC1" stop-opacity="0"/>
</linearGradient>
<linearGradient id="paint3_linear_336_4133" x1="379.951" y1="690.287" x2="142.837" y2="778.562" gradientUnits="userSpaceOnUse">
<stop offset="0.305438" stop-color="#E85C41" stop-opacity="0.32"/>
<stop offset="1" stop-color="#ED5C15"/>
</linearGradient>
</defs>
</svg>
