<svg width="130" height="26" viewBox="0 0 130 26" fill="none" xmlns="http://www.w3.org/2000/svg">
<g clip-path="url(#clip0_868_5297)">
<path d="M7.95147 10.9251L13.0012 5.87735L18.053 10.9292L20.9897 7.99049L13.0012 0L5.01279 7.98844L7.95147 10.9251Z" fill="white"/>
<path d="M-0.00105286 13.0006L2.93655 10.063L5.87415 13.0006L2.93655 15.9382L-0.00105286 13.0006Z" fill="white"/>
<path d="M7.95147 15.0753L13.0012 20.1251L18.053 15.0732L20.9917 18.0078L20.9897 18.0099L13.0012 26.0004L5.01279 18.014L5.00869 18.0099L7.95147 15.0753Z" fill="white"/>
<path d="M20.1233 13.0013L23.0609 10.0637L25.9985 13.0013L23.0609 15.9389L20.1233 13.0013Z" fill="white"/>
<path d="M15.981 12.9991L13.0012 10.0173L10.7977 12.2208L10.5431 12.4734L10.0215 12.995L10.0174 12.9991L10.0215 13.0053L13.0012 15.983L15.981 13.0012L15.983 12.9991H15.981Z" fill="white"/>
<path d="M30.582 6.30042H36.9727C38.5581 6.30042 39.7574 6.71113 40.5706 7.53256C40.877 7.836 41.1185 8.19851 41.2805 8.59812C41.4426 8.99773 41.5217 9.4261 41.5132 9.85722V9.89624C41.5187 10.2494 41.4695 10.6013 41.3674 10.9395C41.2764 11.2305 41.1443 11.5071 40.9751 11.7609C40.8174 12.0002 40.6266 12.2159 40.4083 12.4016C40.1951 12.5851 39.9615 12.7436 39.7122 12.8739C40.4313 13.1244 41.0779 13.5475 41.5953 14.1061C42.0526 14.6263 42.2812 15.3451 42.2812 16.2623V16.3014C42.2942 16.8742 42.1696 17.4418 41.9177 17.9566C41.6737 18.4308 41.316 18.8372 40.8766 19.1394C40.3798 19.4725 39.8266 19.7125 39.244 19.8479C38.5518 20.012 37.8422 20.0914 37.1308 20.0841H30.582V6.30042ZM36.332 11.8738C36.8849 11.9006 37.4351 11.7816 37.9276 11.5288C38.1197 11.4167 38.2765 11.2529 38.3803 11.0562C38.4841 10.8595 38.5307 10.6377 38.5149 10.4158V10.3768C38.5251 10.1724 38.4836 9.96867 38.3942 9.78453C38.3048 9.6004 38.1705 9.44177 38.0036 9.32329C37.6627 9.08097 37.1705 8.9598 36.5271 8.9598H33.5371V11.8738H36.332ZM37.139 17.4288C37.6899 17.4596 38.2382 17.3336 38.7203 17.0653C38.9081 16.9446 39.0601 16.7758 39.1605 16.5765C39.2609 16.3771 39.3061 16.1544 39.2912 15.9317V15.8927C39.2986 15.681 39.254 15.4707 39.1613 15.2802C39.0685 15.0898 38.9305 14.925 38.7593 14.8002C38.4061 14.5264 37.8352 14.3895 37.0466 14.3895H33.5371V17.4288H37.139Z" fill="white"/>
<path d="M46.0886 6.30042H49.1217V20.0882H46.0886V6.30042Z" fill="white"/>
<path d="M53.7115 6.30042H56.5084L62.9731 14.7858V6.30042H65.9672V20.0882H63.3859L56.7097 11.3235V20.0882H53.7115V6.30042Z" fill="white"/>
<path d="M75.1509 6.20178H77.9437L83.8519 20.0881H80.6853L79.4244 16.9954H73.5942L72.3333 20.0881H69.2406L75.1509 6.20178ZM78.3421 14.3175L76.5062 9.84484L74.6785 14.3175H78.3421Z" fill="white"/>
<path d="M87.1315 6.30042H89.9284L96.389 14.7858V6.30042H99.3831V20.0882H96.8018L90.1256 11.3235V20.0882H87.1315V6.30042Z" fill="white"/>
<path d="M110.3 20.3305C109.333 20.3388 108.375 20.1516 107.482 19.7801C106.642 19.4332 105.88 18.9216 105.241 18.2755C104.601 17.6293 104.097 16.8618 103.759 16.018C103.403 15.1353 103.222 14.1915 103.227 13.2395V13.2004C103.212 11.3239 103.934 9.51631 105.238 8.16712C105.88 7.50807 106.648 6.98558 107.497 6.63104C108.42 6.24858 109.412 6.05784 110.411 6.07041C111.002 6.066 111.592 6.11895 112.173 6.22853C112.67 6.32252 113.156 6.46773 113.623 6.66184C114.046 6.84022 114.449 7.06473 114.824 7.33131C115.19 7.5913 115.533 7.88116 115.851 8.19792L113.923 10.424C113.43 9.96942 112.877 9.58455 112.28 9.28016C111.693 8.99956 111.049 8.85897 110.399 8.86944C109.857 8.86367 109.321 8.97311 108.825 9.19051C108.33 9.4079 107.886 9.72827 107.524 10.1303C107.164 10.5314 106.883 10.9959 106.694 11.5001C106.496 12.0329 106.397 12.5972 106.4 13.1655V13.2046C106.398 13.7721 106.498 14.3354 106.694 14.868C106.881 15.3739 107.159 15.8411 107.515 16.2459C107.875 16.653 108.318 16.978 108.814 17.1991C109.31 17.4202 109.847 17.5321 110.39 17.5273C111.082 17.5491 111.768 17.4003 112.388 17.094C112.979 16.7722 113.525 16.3745 114.013 15.9112L115.943 17.8621C115.602 18.232 115.234 18.5753 114.84 18.8889C114.454 19.1944 114.035 19.4554 113.59 19.6672C113.116 19.8903 112.617 20.0551 112.103 20.158C111.509 20.277 110.905 20.3348 110.3 20.3305Z" fill="white"/>
<path d="M119.523 6.30042H129.899V8.99882H122.506V11.7958H129.016V14.4942H122.517V17.3898H130.002V20.0882H119.529L119.523 6.30042Z" fill="white"/>
</g>
<defs>
<clipPath id="clip0_868_5297">
<rect width="130" height="26.0004" fill="white"/>
</clipPath>
</defs>
</svg>
