<svg width="101" height="28" viewBox="0 0 101 28" fill="none" xmlns="http://www.w3.org/2000/svg">
<path fill-rule="evenodd" clip-rule="evenodd" d="M100.11 8.41204C100.242 8.41204 100.33 8.45604 100.418 8.50004C100.506 8.58804 100.506 8.67604 100.506 8.80804V11.272C100.506 11.404 100.462 11.492 100.418 11.58C100.33 11.668 100.242 11.668 100.11 11.668H97.9541V21.524C97.9541 21.656 97.9101 21.744 97.8661 21.832C97.7781 21.92 97.6901 21.92 97.5581 21.92H94.3461C94.2141 21.92 94.1261 21.876 94.0381 21.832C93.9501 21.744 93.9501 21.656 93.9501 21.524V11.668H91.7941C91.6621 11.668 91.5741 11.624 91.4861 11.58C91.3981 11.492 91.3981 11.404 91.3981 11.272V8.80804C91.3981 8.67604 91.4421 8.58804 91.4861 8.50004C91.5741 8.41204 91.6621 8.41204 91.7941 8.41204H93.9501V4.93604C93.9501 4.80404 93.9941 4.71604 94.0381 4.62804C94.1261 4.54004 94.2141 4.54004 94.3461 4.54004H97.5581C97.6901 4.54004 97.7781 4.58404 97.8661 4.62804C97.9541 4.71604 97.9541 4.80404 97.9541 4.93604V8.41204H100.11Z" fill="white"/>
<path fill-rule="evenodd" clip-rule="evenodd" d="M90.8261 14.968C90.8261 15.584 90.7821 16.024 90.6501 16.288C90.5181 16.552 90.2541 16.684 89.8581 16.684H81.8501C82.0261 17.432 82.4221 17.96 82.9941 18.356C83.5661 18.708 84.3141 18.884 85.2381 18.884C85.6781 18.884 86.1181 18.84 86.5141 18.708C86.9101 18.576 87.3501 18.356 87.7901 18.092C87.8781 18.004 87.9661 18.004 88.0981 18.004C88.1861 18.004 88.2741 18.048 88.4061 18.18L89.8141 19.544C89.9021 19.632 89.9021 19.72 89.9021 19.8081C89.9021 19.8961 89.8581 20.028 89.7261 20.116C89.0661 20.776 88.3181 21.2601 87.4821 21.6561C86.6461 22.0081 85.7661 22.184 84.7981 22.184C83.4341 22.184 82.2461 21.876 81.1461 21.26C80.0901 20.644 79.2541 19.808 78.6821 18.752C78.1101 17.696 77.8021 16.552 77.8021 15.276C77.8021 14 78.1101 12.856 78.6821 11.8C79.2541 10.744 80.0901 9.90805 81.1021 9.33605C82.1141 8.72005 83.2581 8.41205 84.5341 8.41205C85.7661 8.41205 86.8661 8.72005 87.8341 9.29205C88.8021 9.90805 89.5061 10.7 90.0341 11.712C90.5621 12.724 90.8261 13.824 90.8261 15.056V14.968ZM84.5781 11.756C83.8741 11.756 83.2581 11.976 82.7741 12.372C82.2901 12.768 81.9381 13.34 81.8061 14.044H87.2621C87.1301 13.296 86.8221 12.724 86.3381 12.372C85.8541 11.976 85.2821 11.756 84.5781 11.756Z" fill="white"/>
<path fill-rule="evenodd" clip-rule="evenodd" d="M76.0461 8.63203C76.1781 8.63203 76.2661 8.67603 76.3541 8.72003C76.4421 8.80803 76.4421 8.89603 76.4421 9.02803V21.876C76.4421 23.196 76.0901 24.296 75.3861 25.088C74.6821 25.924 73.8021 26.496 72.7021 26.848C71.6461 27.2 70.5461 27.376 69.4021 27.376C68.2581 27.376 67.2021 27.2 66.1461 26.892C65.1341 26.584 64.2541 26.144 63.5501 25.616C63.4621 25.528 63.3741 25.44 63.3741 25.308C63.3741 25.22 63.3741 25.132 63.4181 25.044L64.4741 23.152C64.5621 23.02 64.6941 22.932 64.7821 22.932C64.8701 22.932 64.9581 22.932 65.0021 22.976C65.6181 23.328 66.2341 23.592 66.8941 23.768C67.5541 23.944 68.3021 24.032 69.0941 24.032C70.0181 24.032 70.8541 23.812 71.6021 23.416C72.3501 23.02 72.7461 22.404 72.7461 21.48V20.204C71.6901 21.392 70.4141 22.008 68.8741 22.008C67.6861 22.008 66.5861 21.7 65.6181 21.084C64.6501 20.468 63.9021 19.632 63.3301 18.576C62.8021 17.52 62.5381 16.376 62.5381 15.144C62.5381 13.912 62.8021 12.768 63.3301 11.712C63.9021 10.656 64.6501 9.82003 65.6181 9.20403C66.5861 8.58803 67.6861 8.28003 68.8741 8.28003C70.3261 8.28003 71.6021 8.85203 72.6581 10.04L72.7461 8.98403C72.7901 8.72003 72.9221 8.58803 73.1421 8.58803H76.0901L76.0461 8.63203ZM69.3581 18.356C70.1941 18.356 70.8981 18.048 71.4701 17.388C72.0421 16.772 72.3501 16.024 72.3501 15.188C72.3501 14.352 72.0421 13.604 71.4701 12.988C70.8981 12.372 70.1941 12.02 69.3581 12.02C68.5221 12.02 67.8181 12.328 67.2461 12.944C66.6741 13.56 66.3661 14.264 66.3661 15.144C66.3661 16.024 66.6301 16.772 67.2021 17.388C67.7741 18.004 68.4781 18.268 69.3581 18.268V18.356Z" fill="white"/>
<path fill-rule="evenodd" clip-rule="evenodd" d="M61.174 8.41204C61.306 8.41204 61.394 8.45604 61.482 8.50004C61.57 8.58804 61.57 8.67604 61.57 8.80804V11.272C61.57 11.404 61.526 11.492 61.482 11.58C61.394 11.668 61.306 11.668 61.174 11.668H59.018V21.524C59.018 21.656 58.974 21.744 58.93 21.832C58.842 21.92 58.754 21.92 58.622 21.92H55.41C55.278 21.92 55.19 21.876 55.102 21.832C55.014 21.744 55.014 21.656 55.014 21.524V11.668H52.858C52.726 11.668 52.638 11.624 52.55 11.58C52.462 11.492 52.462 11.404 52.462 11.272V8.80804C52.462 8.67604 52.506 8.58804 52.55 8.50004C52.638 8.41204 52.726 8.41204 52.858 8.41204H55.014V4.93604C55.014 4.80404 55.058 4.71604 55.102 4.62804C55.19 4.54004 55.278 4.54004 55.41 4.54004H58.622C58.754 4.54004 58.842 4.58404 58.93 4.62804C59.018 4.71604 59.018 4.80404 59.018 4.93604V8.41204H61.174Z" fill="white"/>
<path fill-rule="evenodd" clip-rule="evenodd" d="M48.9021 7.31199C48.2861 7.31199 47.7581 7.09199 47.3621 6.69599C46.9661 6.25599 46.7461 5.72799 46.7461 5.15599C46.7461 4.53999 46.9661 4.01199 47.3621 3.61599C47.7581 3.17599 48.2861 2.95599 48.9021 2.95599C49.5181 2.95599 50.0461 3.17599 50.4421 3.61599C50.8381 4.05599 51.0581 4.53999 51.0581 5.15599C51.0581 5.77199 50.8381 6.25599 50.4421 6.69599C50.0461 7.13599 49.5181 7.31199 48.9021 7.31199ZM46.8781 8.80799C46.8781 8.67599 46.9221 8.58799 46.9661 8.49999C47.0541 8.41199 47.1421 8.41199 47.2741 8.41199H50.4861C50.6181 8.41199 50.7061 8.45599 50.7941 8.49999C50.8821 8.58799 50.8821 8.67599 50.8821 8.80799V21.568C50.8821 21.7 50.8381 21.788 50.7941 21.876C50.7061 21.964 50.6181 21.964 50.4861 21.964H47.2741C47.1421 21.964 47.0541 21.92 46.9661 21.876C46.8781 21.788 46.8781 21.7 46.8781 21.568V8.80799Z" fill="white"/>
<path fill-rule="evenodd" clip-rule="evenodd" d="M41.6861 11.8C42.6981 12.064 43.5341 12.636 44.2821 13.472C45.0301 14.308 45.3821 15.32 45.3821 16.508C45.3821 18.356 44.8101 19.72 43.6221 20.644C42.4781 21.568 40.7181 22.008 38.3421 22.008H31.6981C31.5661 22.008 31.4781 21.964 31.3901 21.92C31.3021 21.832 31.3021 21.744 31.3021 21.612V3.30804C31.3021 3.17604 31.3461 3.08804 31.3901 3.00004C31.4781 2.91204 31.5661 2.86804 31.6981 2.86804H38.2981C39.4861 2.86804 40.4981 3.08804 41.3341 3.52804C42.2141 3.96804 42.8301 4.54004 43.2701 5.28804C43.7101 6.03604 43.9301 6.87204 43.9301 7.79604C43.9301 8.76404 43.7101 9.55604 43.2701 10.26C42.8301 10.964 42.3021 11.448 41.6421 11.756L41.6861 11.8ZM40.0581 8.36804C40.0581 7.22404 39.3541 6.60804 37.9461 6.60804H35.4821V10.26H37.9461C38.6061 10.26 39.1341 10.084 39.5301 9.77604C39.9261 9.46804 40.1021 8.98404 40.1021 8.32404L40.0581 8.36804ZM38.4741 18.268C39.3101 18.268 39.9701 18.092 40.4541 17.696C40.9381 17.3 41.2021 16.728 41.2021 15.98C41.2021 15.232 40.9381 14.704 40.4541 14.352C39.9701 14 39.3101 13.824 38.4741 13.824H35.4381V18.312H38.4741V18.268Z" fill="white"/>
<path fill-rule="evenodd" clip-rule="evenodd" d="M8.25006 1.19602C8.60206 0.844023 9.08606 0.624023 9.57006 0.624023H12.8261C13.2221 0.624023 13.4421 1.10802 13.1781 1.41602L6.75406 8.28002H10.3181L13.9261 12.108H6.75406L13.9261 19.764H9.61406C9.13006 19.764 8.64606 19.544 8.29406 19.192L1.03406 11.448C0.374062 10.744 0.374062 9.68802 1.03406 8.98402L8.29406 1.24002L8.25006 1.19602Z" fill="white"/>
<path fill-rule="evenodd" clip-rule="evenodd" d="M18.234 26.804C17.882 27.156 17.398 27.376 16.914 27.376H13.658C13.262 27.376 13.042 26.892 13.306 26.584L19.73 19.72H16.166L12.558 15.892H19.73L12.562 8.23602H16.874C17.358 8.23602 17.842 8.45602 18.194 8.80802L25.454 16.552C26.114 17.256 26.114 18.312 25.454 19.016L18.19 26.76L18.234 26.804Z" fill="white"/>
</svg>
