<svg width="151" height="26" viewBox="0 0 151 26" fill="none" xmlns="http://www.w3.org/2000/svg">
<path d="M22.5727 15.6457C22.1241 15.9199 21.6007 15.9697 21.202 15.7454C20.7035 15.4463 20.4044 14.7734 20.4044 13.8512V11.0349C20.4044 9.68902 19.881 8.71701 18.9838 8.46777C17.4635 8.01916 16.317 9.8884 15.8933 10.5863L13.2016 14.898V9.58932C13.1766 8.36808 12.7779 7.64531 12.0302 7.421C11.5317 7.27146 10.784 7.34623 10.0612 8.44286L4.05471 18.0633C3.25717 16.5429 2.83347 14.8481 2.83347 13.1284C2.83347 7.32131 7.49413 2.6108 13.2016 2.6108C18.909 2.6108 23.5697 7.32131 23.5697 13.1284V13.1534V13.1783C23.6195 14.2998 23.2706 15.1971 22.5727 15.6457ZM25.8626 13.1284V13.1035V13.0786C25.8377 6.02529 20.1552 0.268005 13.2016 0.268005C6.22304 0.268005 0.540527 6.02529 0.540527 13.1284C0.540527 20.2067 6.22304 25.9889 13.2016 25.9889C16.4167 25.9889 19.4573 24.7676 21.8001 22.5494C22.2737 22.1008 22.2986 21.3781 21.85 20.9045C21.4263 20.431 20.7035 20.406 20.2299 20.8297C20.2299 20.8297 20.2299 20.8297 20.205 20.8547C18.3108 22.6491 15.7687 23.671 13.1517 23.671C10.0862 23.671 7.34459 22.3251 5.45042 20.1817L10.8588 11.5084V15.5211C10.8588 17.4402 11.6065 18.0633 12.2296 18.2377C12.8526 18.4122 13.7997 18.2876 14.8216 16.6676L17.7875 11.8573C17.8872 11.7078 17.9619 11.5583 18.0616 11.4586V13.9011C18.0616 15.6955 18.7844 17.1411 20.0306 17.8389C21.1521 18.4869 22.5727 18.4122 23.7441 17.6894C25.1897 16.7423 25.9623 15.0974 25.8626 13.1284ZM43.5083 8.74193C43.8074 8.9164 44.0816 9.34009 44.0816 9.71394C44.0816 10.3121 43.5831 10.8106 43.0099 10.8106C42.8603 10.8106 42.7357 10.7607 42.6111 10.7358C41.9382 10.2373 41.0908 9.91333 40.1935 9.91333C38.075 9.91333 36.6295 11.633 36.6295 13.7764C36.6295 15.9199 38.1 17.6146 40.1935 17.6146C41.2403 17.6146 42.1874 17.1909 42.8852 16.518C43.0597 16.3934 43.284 16.3186 43.5083 16.3186C44.0816 16.3186 44.5302 16.7672 44.5302 17.3405C44.5302 17.7143 44.3059 18.0383 44.0317 18.2128C43.0099 19.0851 41.6391 19.6583 40.2184 19.6583C36.9784 19.6583 34.3365 16.9915 34.3365 13.7017C34.3365 10.4118 36.9784 7.745 40.2184 7.745C41.4148 7.72008 42.5612 8.09393 43.5083 8.74193ZM49.4401 11.2343C51.6582 11.2343 53.5026 13.1035 53.5026 15.4214C53.5026 17.7143 51.6333 19.6833 49.4401 19.6833C47.1222 19.6833 45.2031 17.7393 45.2031 15.4214C45.2031 13.1035 47.1222 11.2343 49.4401 11.2343ZM49.4151 17.6146C50.3872 17.6146 51.2096 16.6925 51.2096 15.4463C51.2096 14.2001 50.3872 13.4026 49.4151 13.4026C48.3684 13.4026 47.4961 14.1752 47.4961 15.4463C47.4961 16.6675 48.3684 17.6146 49.4151 17.6146ZM54.8983 18.3873V12.5054C54.8983 11.8573 55.3967 11.334 56.0447 11.334C56.6678 11.334 57.1912 11.8573 57.1912 12.5054V18.3873C57.1912 19.0353 56.6678 19.5587 56.0447 19.5587C55.4217 19.5587 54.8983 19.0103 54.8983 18.3873ZM54.7238 9.11578C54.7238 8.34316 55.322 7.745 56.0447 7.745C56.7924 7.745 57.3906 8.36808 57.3906 9.11578C57.3906 9.86348 56.7924 10.4616 56.0447 10.4616C55.297 10.4367 54.7238 9.83856 54.7238 9.11578ZM61.5777 15.1971V18.3873C61.5777 19.0353 61.0543 19.5587 60.4313 19.5587C59.8082 19.5587 59.2848 19.0353 59.2848 18.3873V12.2312C59.2848 11.7327 59.6836 11.334 60.182 11.334C60.6805 11.334 61.0543 11.7577 61.0543 12.2312C61.9765 11.3589 62.799 11.2343 63.5716 11.2343C65.8645 11.2343 66.8864 12.954 66.8864 14.9229V18.3873C66.8864 19.0353 66.363 19.5587 65.7399 19.5587C65.1168 19.5587 64.5934 19.0353 64.5934 18.3873V15.1971C64.5934 14.2001 64.4688 13.3527 63.0233 13.3527C62.0014 13.3527 61.5777 14.2001 61.5777 15.1971ZM74.3135 16.4183C74.0394 16.4183 73.8649 16.2937 73.7154 16.1192L71.0486 13.2281V18.3873C71.0486 19.0353 70.5252 19.5587 69.9021 19.5587C69.279 19.5587 68.7556 19.0353 68.7556 18.3873V8.1687C68.8304 7.99424 69.0049 7.86962 69.1793 7.86962C69.3787 7.86962 69.5532 8.04408 69.6778 8.1687L73.9397 12.954C74.0643 13.1035 74.2138 13.1783 74.3135 13.1783C74.3883 13.1783 74.5628 13.1035 74.6874 12.954L78.9493 8.1687C79.0739 8.04408 79.2234 7.86962 79.4477 7.86962C79.6471 7.86962 79.8216 7.99424 79.8714 8.1687V18.3873C79.8714 19.0353 79.373 19.5587 78.725 19.5587C78.1019 19.5587 77.5785 19.0353 77.5785 18.3873V13.2281L74.9117 16.1192C74.7123 16.2937 74.5378 16.4183 74.3135 16.4183ZM85.3296 17.6146C86.3515 17.6146 87.2238 16.6925 87.2238 15.4463C87.2238 14.2001 86.3266 13.3777 85.3296 13.3777C84.3327 13.3777 83.5102 14.2251 83.5102 15.4463C83.5102 16.6426 84.3078 17.6146 85.3296 17.6146ZM87.7721 18.6614L87.7223 18.3873C87.2737 19.2596 85.853 19.6583 84.9558 19.6583C82.8124 19.6583 81.2173 17.7143 81.2173 15.3965C81.2173 13.1035 82.8373 11.2093 85.0804 11.2093C85.4543 11.2093 86.7503 11.309 87.7472 12.4804L87.797 12.2063C87.797 11.7078 88.1709 11.309 88.6694 11.309C89.1678 11.309 89.5666 11.7327 89.5666 12.2063V18.6365C89.5666 19.135 89.1678 19.5337 88.6694 19.5337C88.146 19.5587 87.7721 19.135 87.7721 18.6614ZM95.8722 13.3527H95.623C94.1774 13.4275 93.9033 14.25 93.9033 15.1971V18.3873C93.9033 19.0353 93.3799 19.5587 92.7568 19.5587C92.1337 19.5587 91.6103 19.0353 91.6103 18.3873V12.2312C91.6103 11.7327 92.0091 11.334 92.5076 11.334C93.006 11.334 93.3799 11.7577 93.3799 12.2312C94.2273 11.4337 94.9251 11.2592 95.623 11.2343H95.8473C96.3956 11.2343 96.8941 11.7078 96.8941 12.306C96.919 12.8543 96.4205 13.3527 95.8722 13.3527ZM104.72 17.8389C104.82 18.0134 104.894 18.1879 104.894 18.3873C104.894 18.9854 104.346 19.5337 103.748 19.5337C103.349 19.5337 103 19.2347 102.726 18.8857L100.084 15.8202V18.3623C100.084 19.0103 99.5609 19.5337 98.9378 19.5337C98.3147 19.5337 97.7913 19.0103 97.7913 18.3623V9.01609C97.7913 8.36808 98.2898 7.84469 98.9378 7.84469C99.5858 7.84469 100.084 8.36808 100.084 9.01609V14.8481L102.726 11.9321C103 11.633 103.324 11.309 103.723 11.309C104.296 11.309 104.82 11.8324 104.82 12.4306C104.82 12.6051 104.77 12.8044 104.67 12.954L102.577 15.2469L104.72 17.8389ZM109.206 13.3777C108.583 13.3777 107.561 13.7017 107.561 14.6737H110.876C110.851 13.7017 109.804 13.3777 109.206 13.3777ZM112.197 16.1442H107.561C107.561 17.5149 108.882 17.7393 109.455 17.7393C109.879 17.7393 110.477 17.6645 110.951 17.4402C111.1 17.3405 111.325 17.2657 111.549 17.2657C112.047 17.2657 112.471 17.6894 112.471 18.2128C112.471 18.5617 112.247 18.8608 111.973 19.0353C111.275 19.5587 110.353 19.6833 109.48 19.6833C107.162 19.6833 105.243 18.4371 105.243 15.5211C105.243 13.2281 106.415 11.2343 109.156 11.2343C111.375 11.2343 113.044 12.6798 113.094 15.2469C113.094 15.7205 112.695 16.1442 112.197 16.1442ZM118.577 19.6583H117.954C116.21 19.6583 115.188 18.8857 115.188 16.1691V13.3527H114.59C114.041 13.3527 113.568 12.8543 113.568 12.306C113.568 11.7078 114.066 11.2343 114.59 11.2343H115.188V9.06594C115.188 8.41793 115.686 7.89454 116.334 7.89454C116.957 7.89454 117.481 8.41793 117.481 9.06594V11.2343H118.428C118.976 11.2343 119.45 11.7078 119.45 12.306C119.45 12.8543 118.951 13.3527 118.428 13.3527H117.481V15.7205C117.481 17.2906 117.555 17.6146 118.253 17.6146H118.577C119.126 17.6146 119.599 18.0633 119.599 18.6365C119.599 19.1848 119.126 19.6583 118.577 19.6583ZM129.668 8.74193C129.967 8.9164 130.241 9.34009 130.241 9.71394C130.241 10.3121 129.743 10.8106 129.17 10.8106C129.02 10.8106 128.896 10.7607 128.771 10.7358C128.098 10.2373 127.251 9.91333 126.353 9.91333C124.235 9.91333 122.789 11.633 122.789 13.7764C122.789 15.9199 124.26 17.6146 126.353 17.6146C127.4 17.6146 128.347 17.1909 129.045 16.518C129.22 16.3934 129.444 16.3186 129.668 16.3186C130.241 16.3186 130.69 16.7672 130.69 17.3405C130.69 17.7143 130.466 18.0383 130.192 18.2128C129.17 19.0851 127.799 19.6583 126.378 19.6583C123.138 19.6583 120.496 16.9915 120.496 13.7017C120.496 10.4118 123.138 7.745 126.378 7.745C127.575 7.72008 128.746 8.09393 129.668 8.74193ZM135.475 17.6146C136.497 17.6146 137.37 16.6925 137.37 15.4463C137.37 14.2001 136.472 13.3777 135.475 13.3777C134.453 13.3777 133.656 14.2251 133.656 15.4463C133.656 16.6426 134.478 17.6146 135.475 17.6146ZM137.918 18.6614L137.868 18.3873C137.419 19.2596 135.999 19.6583 135.101 19.6583C132.958 19.6583 131.363 17.7143 131.363 15.3965C131.363 13.1035 132.983 11.2093 135.226 11.2093C135.6 11.2093 136.896 11.309 137.893 12.4804L137.943 12.2063C137.943 11.7078 138.317 11.309 138.815 11.309C139.314 11.309 139.712 11.7327 139.712 12.2063V18.6365C139.712 19.135 139.314 19.5337 138.815 19.5337C138.292 19.5587 137.918 19.135 137.918 18.6614ZM145.968 17.6146C146.99 17.6146 147.787 16.6426 147.787 15.4463C147.787 14.2001 146.965 13.3777 145.968 13.3777C144.946 13.3777 144.074 14.2001 144.074 15.4463C144.074 16.6925 144.946 17.6146 145.968 17.6146ZM144.074 18.9854V21.9014C144.074 22.5495 143.551 23.0728 142.927 23.0728C142.304 23.0728 141.781 22.5495 141.781 21.9014V12.2312C141.781 11.7327 142.18 11.334 142.678 11.334C143.177 11.334 143.551 11.7577 143.551 12.3309C144.398 11.4586 145.445 11.2343 146.242 11.2343C148.46 11.2343 150.105 13.1035 150.105 15.4214C150.105 17.7143 148.535 19.6833 146.367 19.6833C145.694 19.6583 144.697 19.459 144.074 18.9854Z" fill="white"/>
</svg>
